<svg xmlns="http://www.w3.org/2000/svg" xmlns:xlink="http://www.w3.org/1999/xlink" width="584.123" height="771.66" viewBox="0 0 584.123 771.66"><defs><linearGradient id="a" x1="0.856" y1="0.9" x2="-0.211" y2="0.378" gradientUnits="objectBoundingBox"><stop offset="0" stop-color="#ff7854"/><stop offset="1" stop-color="#fd267d"/></linearGradient></defs><path d="M536.9,99.9c6.8,5.2,12.7,11.6,19.2,17.2C614.8,172.5,668.6,233.7,711.9,302c41.9,66.1,74.1,139.2,88.4,216.4,7.9,42.3,10.5,85.7,5.9,128.5-2.1,17.9-5.2,35.8-10.9,52.9-8,24.8-18.5,48.9-32.9,70.7a200.408,200.408,0,0,1-45.8,49.2c-19.7,14.9-42.2,25.8-65.6,33.3-29.1,9.3-59.6,13.9-90,16.4-36.3,2.7-72.8,3.2-109-1.4-41-5.1-81.7-16-118.2-35.7-33.8-18.2-63.5-44.9-82.6-78.5-22.1-38.4-29.4-83.9-25.9-127.8,3.6-46.5,18.4-91.6,38-133.7,17-36.2,37.8-70.5,60.9-103.1a769.261,769.261,0,0,1,64.1-78.9c.4-.3,1.2-1,1.7-1.3-.4,20.9,1.6,41.9,7.6,62a159.8,159.8,0,0,0,30.1,56.3c.8,1,1.4,2.4,2.9,2.6,29.7-22.3,57.8-47.3,79.7-77.4A241.458,241.458,0,0,0,554,246.9c7.7-49.3,1.1-100.6-17.1-147Z" transform="translate(-224.36 -99.76)" stroke="#fff" stroke-width="0.094" fill="url(#a)"/></svg>